<?xml version="1.0" encoding="UTF-8" standalone="no"?>
<!DOCTYPE svg PUBLIC "-//W3C//DTD SVG 1.1//EN"
 "http://www.w3.org/Graphics/SVG/1.1/DTD/svg11.dtd">
<!-- Generated by graphviz version 13.1.1 (20250719.2154)
 -->
<!-- Title: SystemArchitecture Pages: 1 -->
<svg width="1980pt" height="805pt"
 viewBox="0.00 0.00 1980.00 805.00" xmlns="http://www.w3.org/2000/svg" xmlns:xlink="http://www.w3.org/1999/xlink">
<g id="graph0" class="graph" transform="scale(1 1) rotate(0) translate(4 801.2)">
<title>SystemArchitecture</title>
<polygon fill="white" stroke="none" points="-4,4 -4,-801.2 1976.5,-801.2 1976.5,4 -4,4"/>
<text xml:space="preserve" text-anchor="middle" x="986.25" y="-781.5" font-family="Arial" font-size="13.00">Laptop Insights Engine &#45; System Architecture</text>
<g id="clust1" class="cluster">
<title>cluster_DataSources</title>
<path fill="lightgrey" stroke="lightgrey" d="M21.5,-670C21.5,-670 505.5,-670 505.5,-670 511.5,-670 517.5,-676 517.5,-682 517.5,-682 517.5,-753.6 517.5,-753.6 517.5,-759.6 511.5,-765.6 505.5,-765.6 505.5,-765.6 21.5,-765.6 21.5,-765.6 15.5,-765.6 9.5,-759.6 9.5,-753.6 9.5,-753.6 9.5,-682 9.5,-682 9.5,-676 15.5,-670 21.5,-670"/>
<text xml:space="preserve" text-anchor="middle" x="263.5" y="-749.9" font-family="Arial" font-size="13.00">Data Sources</text>
</g>
<g id="clust2" class="cluster">
<title>cluster_DataProcessingStorage</title>
<path fill="lightgrey" stroke="lightgrey" d="M23.5,-8C23.5,-8 1160.5,-8 1160.5,-8 1166.5,-8 1172.5,-14 1172.5,-20 1172.5,-20 1172.5,-625.6 1172.5,-625.6 1172.5,-631.6 1166.5,-637.6 1160.5,-637.6 1160.5,-637.6 23.5,-637.6 23.5,-637.6 17.5,-637.6 11.5,-631.6 11.5,-625.6 11.5,-625.6 11.5,-20 11.5,-20 11.5,-14 17.5,-8 23.5,-8"/>
<text xml:space="preserve" text-anchor="middle" x="592" y="-621.9" font-family="Arial" font-size="13.00">Data Processing &amp; Storage</text>
</g>
<g id="clust4" class="cluster">
<title>cluster_BackendAPI</title>
<path fill="lightgrey" stroke="lightgrey" d="M1192.5,-24.5C1192.5,-24.5 1668.5,-24.5 1668.5,-24.5 1674.5,-24.5 1680.5,-30.5 1680.5,-36.5 1680.5,-36.5 1680.5,-615.1 1680.5,-615.1 1680.5,-621.1 1674.5,-627.1 1668.5,-627.1 1668.5,-627.1 1192.5,-627.1 1192.5,-627.1 1186.5,-627.1 1180.5,-621.1 1180.5,-615.1 1180.5,-615.1 1180.5,-36.5 1180.5,-36.5 1180.5,-30.5 1186.5,-24.5 1192.5,-24.5"/>
<text xml:space="preserve" text-anchor="middle" x="1430.5" y="-611.4" font-family="Arial" font-size="13.00">Backend API (FastAPI)</text>
</g>
<g id="clust6" class="cluster">
<title>cluster_FrontendUI</title>
<path fill="lightgrey" stroke="lightgrey" d="M1784.5,-40.37C1784.5,-40.37 1952.5,-40.37 1952.5,-40.37 1958.5,-40.37 1964.5,-46.37 1964.5,-52.37 1964.5,-52.37 1964.5,-300.6 1964.5,-300.6 1964.5,-306.6 1958.5,-312.6 1952.5,-312.6 1952.5,-312.6 1784.5,-312.6 1784.5,-312.6 1778.5,-312.6 1772.5,-306.6 1772.5,-300.6 1772.5,-300.6 1772.5,-52.37 1772.5,-52.37 1772.5,-46.37 1778.5,-40.37 1784.5,-40.37"/>
<text xml:space="preserve" text-anchor="middle" x="1868.5" y="-296.9" font-family="Arial" font-size="13.00">Frontend UI (Streamlit)</text>
</g>
<!-- PDFs -->
<g id="node1" class="node">
<title>PDFs</title>
<polygon fill="#ffcdd2" stroke="black" points="195.43,-734 17.56,-734 17.56,-678 201.43,-678 201.43,-728 195.43,-734"/>
<polyline fill="none" stroke="black" points="195.43,-734 195.43,-728"/>
<polyline fill="none" stroke="black" points="201.43,-728 195.43,-728"/>
<text xml:space="preserve" text-anchor="middle" x="109.5" y="-712" font-family="Arial" font-size="20.00">Laptop Spec PDFs</text>
<text xml:space="preserve" text-anchor="middle" x="109.5" y="-688" font-family="Arial" font-size="20.00">(Static Specs)</text>
</g>
<!-- PDFToJson -->
<g id="node3" class="node">
<title>PDFToJson</title>
<path fill="#bbdefb" stroke="black" d="M233.87,-599C233.87,-602.86 188.44,-606 132.5,-606 76.56,-606 31.12,-602.86 31.12,-599 31.12,-599 31.12,-536 31.12,-536 31.12,-532.14 76.56,-529 132.5,-529 188.44,-529 233.87,-532.14 233.87,-536 233.87,-536 233.87,-599 233.87,-599"/>
<path fill="none" stroke="black" d="M233.87,-599C233.87,-595.14 188.44,-592 132.5,-592 76.56,-592 31.12,-595.14 31.12,-599"/>
<text xml:space="preserve" text-anchor="middle" x="132.5" y="-573.5" font-family="Arial" font-size="20.00">PDF &#45;&gt; JSON Script</text>
<text xml:space="preserve" text-anchor="middle" x="132.5" y="-549.5" font-family="Arial" font-size="20.00">(Semantic Chunking)</text>
</g>
<!-- PDFs&#45;&gt;PDFToJson -->
<g id="edge1" class="edge">
<title>PDFs&#45;&gt;PDFToJson</title>
<path fill="none" stroke="black" d="M116.28,-677.64C116.28,-677.64 116.28,-617.84 116.28,-617.84"/>
<polygon fill="black" stroke="black" points="119.78,-617.84 116.28,-607.84 112.78,-617.84 119.78,-617.84"/>
<text xml:space="preserve" text-anchor="middle" x="99.6" y="-652.24" font-family="Arial" font-size="15.00">Input</text>
</g>
<!-- Websites -->
<g id="node2" class="node">
<title>Websites</title>
<polygon fill="#ffcdd2" stroke="black" points="503.21,-734 309.79,-734 309.79,-678 509.21,-678 509.21,-728 503.21,-734"/>
<polyline fill="none" stroke="black" points="503.21,-734 503.21,-728"/>
<polyline fill="none" stroke="black" points="509.21,-728 503.21,-728"/>
<text xml:space="preserve" text-anchor="middle" x="409.5" y="-712" font-family="Arial" font-size="20.00">Live Brand Websites</text>
<text xml:space="preserve" text-anchor="middle" x="409.5" y="-688" font-family="Arial" font-size="20.00">(Dynamic Data)</text>
</g>
<!-- SetupDBScript -->
<g id="node9" class="node">
<title>SetupDBScript</title>
<path fill="#bbdefb" stroke="black" d="M303.45,-298C303.45,-303.52 239.83,-308 161.5,-308 83.17,-308 19.54,-303.52 19.54,-298 19.54,-298 19.54,-208 19.54,-208 19.54,-202.48 83.17,-198 161.5,-198 239.83,-198 303.45,-202.48 303.45,-208 303.45,-208 303.45,-298 303.45,-298"/>
<path fill="none" stroke="black" d="M303.45,-298C303.45,-292.48 239.83,-288 161.5,-288 83.17,-288 19.54,-292.48 19.54,-298"/>
<text xml:space="preserve" text-anchor="middle" x="161.5" y="-271" font-family="Arial" font-size="20.00">DB Setup/Seeding</text>
<text xml:space="preserve" text-anchor="middle" x="161.5" y="-247" font-family="Arial" font-size="20.00">(setup_dynamic_db...)</text>
<text xml:space="preserve" text-anchor="middle" x="161.5" y="-223" font-family="Arial" font-size="20.00">(Manual Input Reflected Here)</text>
</g>
<!-- Websites&#45;&gt;SetupDBScript -->
<g id="edge8" class="edge">
<title>Websites&#45;&gt;SetupDBScript</title>
<path fill="none" stroke="black" d="M326.07,-677.77C326.07,-585.7 326.07,-300 326.07,-300 326.07,-300 315.39,-300 315.39,-300"/>
<polygon fill="black" stroke="black" points="315.39,-296.5 305.39,-300 315.39,-303.5 315.39,-296.5"/>
<text xml:space="preserve" text-anchor="middle" x="287.71" y="-488.05" font-family="Arial" font-size="15.00">Source Info</text>
</g>
<!-- StaticJSON -->
<g id="node4" class="node">
<title>StaticJSON</title>
<path fill="#e8f5e9" stroke="black" d="M228.85,-450C228.85,-453.86 190.15,-457 142.5,-457 94.85,-457 56.15,-453.86 56.15,-450 56.15,-450 56.15,-387 56.15,-387 56.15,-383.14 94.85,-380 142.5,-380 190.15,-380 228.85,-383.14 228.85,-387 228.85,-387 228.85,-450 228.85,-450"/>
<path fill="none" stroke="black" d="M228.85,-450C228.85,-446.14 190.15,-443 142.5,-443 94.85,-443 56.15,-446.14 56.15,-450"/>
<text xml:space="preserve" text-anchor="middle" x="142.5" y="-424.5" font-family="Arial" font-size="20.00">Static JSON Files</text>
<text xml:space="preserve" text-anchor="middle" x="142.5" y="-400.5" font-family="Arial" font-size="20.00">(/data/*.json)</text>
</g>
<!-- PDFToJson&#45;&gt;StaticJSON -->
<g id="edge2" class="edge">
<title>PDFToJson&#45;&gt;StaticJSON</title>
<path fill="none" stroke="black" d="M142.5,-528.74C142.5,-528.74 142.5,-468.84 142.5,-468.84"/>
<polygon fill="black" stroke="black" points="146,-468.84 142.5,-458.84 139,-468.84 146,-468.84"/>
<text xml:space="preserve" text-anchor="middle" x="107.48" y="-503.29" font-family="Arial" font-size="15.00">Generates</text>
</g>
<!-- BuildIndexScript -->
<g id="node5" class="node">
<title>BuildIndexScript</title>
<path fill="#bbdefb" stroke="black" d="M623.88,-284.5C623.88,-288.36 576.2,-291.5 517.5,-291.5 458.8,-291.5 411.12,-288.36 411.12,-284.5 411.12,-284.5 411.12,-221.5 411.12,-221.5 411.12,-217.64 458.8,-214.5 517.5,-214.5 576.2,-214.5 623.88,-217.64 623.88,-221.5 623.88,-221.5 623.88,-284.5 623.88,-284.5"/>
<path fill="none" stroke="black" d="M623.88,-284.5C623.88,-280.64 576.2,-277.5 517.5,-277.5 458.8,-277.5 411.12,-280.64 411.12,-284.5"/>
<text xml:space="preserve" text-anchor="middle" x="517.5" y="-259" font-family="Arial" font-size="20.00">Indexing Script</text>
<text xml:space="preserve" text-anchor="middle" x="517.5" y="-235" font-family="Arial" font-size="20.00">(build_vector_index...)</text>
</g>
<!-- StaticJSON&#45;&gt;BuildIndexScript -->
<g id="edge3" class="edge">
<title>StaticJSON&#45;&gt;BuildIndexScript</title>
<path fill="none" stroke="black" d="M229.3,-385C323.36,-385 460.16,-385 460.16,-385 460.16,-385 460.16,-303.4 460.16,-303.4"/>
<polygon fill="black" stroke="black" points="463.66,-303.4 460.16,-293.4 456.66,-303.4 463.66,-303.4"/>
<text xml:space="preserve" text-anchor="middle" x="368.85" y="-389.5" font-family="Arial" font-size="15.00">Input</text>
</g>
<!-- EmbedModel -->
<g id="node6" class="node">
<title>EmbedModel</title>
<path fill="#e8f5e9" stroke="black" d="M570.65,-102.5C570.65,-106.36 519.48,-109.5 456.5,-109.5 393.51,-109.5 342.35,-106.36 342.35,-102.5 342.35,-102.5 342.35,-39.5 342.35,-39.5 342.35,-35.64 393.51,-32.5 456.5,-32.5 519.48,-32.5 570.65,-35.64 570.65,-39.5 570.65,-39.5 570.65,-102.5 570.65,-102.5"/>
<path fill="none" stroke="black" d="M570.65,-102.5C570.65,-98.64 519.48,-95.5 456.5,-95.5 393.51,-95.5 342.35,-98.64 342.35,-102.5"/>
<text xml:space="preserve" text-anchor="middle" x="456.5" y="-77" font-family="Arial" font-size="20.00">Embedding Model</text>
<text xml:space="preserve" text-anchor="middle" x="456.5" y="-53" font-family="Arial" font-size="20.00">(Sentence Transformer)</text>
</g>
<!-- BuildIndexScript&#45;&gt;EmbedModel -->
<g id="edge4" class="edge">
<title>BuildIndexScript&#45;&gt;EmbedModel</title>
<path fill="none" stroke="black" d="M490.88,-214.4C490.88,-214.4 490.88,-121.37 490.88,-121.37"/>
<polygon fill="black" stroke="black" points="494.38,-121.37 490.88,-111.37 487.38,-121.37 494.38,-121.37"/>
<text xml:space="preserve" text-anchor="middle" x="442.1" y="-154.39" font-family="Arial" font-size="15.00">Sends Chunks</text>
</g>
<!-- FAISS -->
<g id="node7" class="node">
<title>FAISS</title>
<path fill="#e8f5e9" stroke="black" d="M826.09,-102.5C826.09,-106.36 793.11,-109.5 752.5,-109.5 711.89,-109.5 678.91,-106.36 678.91,-102.5 678.91,-102.5 678.91,-39.5 678.91,-39.5 678.91,-35.64 711.89,-32.5 752.5,-32.5 793.11,-32.5 826.09,-35.64 826.09,-39.5 826.09,-39.5 826.09,-102.5 826.09,-102.5"/>
<path fill="none" stroke="black" d="M826.09,-102.5C826.09,-98.64 793.11,-95.5 752.5,-95.5 711.89,-95.5 678.91,-98.64 678.91,-102.5"/>
<text xml:space="preserve" text-anchor="middle" x="752.5" y="-77" font-family="Arial" font-size="20.00">FAISS Index</text>
<text xml:space="preserve" text-anchor="middle" x="752.5" y="-53" font-family="Arial" font-size="20.00">(laptops.index)</text>
</g>
<!-- BuildIndexScript&#45;&gt;FAISS -->
<g id="edge6" class="edge">
<title>BuildIndexScript&#45;&gt;FAISS</title>
<path fill="none" stroke="black" d="M597.26,-215.4C597.26,-158.74 597.26,-58 597.26,-58 597.26,-58 667.01,-58 667.01,-58"/>
<polygon fill="black" stroke="black" points="667.01,-61.5 677.01,-58 667.01,-54.5 667.01,-61.5"/>
<text xml:space="preserve" text-anchor="middle" x="618.1" y="-88.33" font-family="Arial" font-size="15.00">Writes Index</text>
</g>
<!-- MetaJSON -->
<g id="node8" class="node">
<title>MetaJSON</title>
<path fill="#e8f5e9" stroke="black" d="M1164.78,-102.5C1164.78,-106.36 1113.11,-109.5 1049.5,-109.5 985.89,-109.5 934.21,-106.36 934.21,-102.5 934.21,-102.5 934.21,-39.5 934.21,-39.5 934.21,-35.64 985.89,-32.5 1049.5,-32.5 1113.11,-32.5 1164.78,-35.64 1164.78,-39.5 1164.78,-39.5 1164.78,-102.5 1164.78,-102.5"/>
<path fill="none" stroke="black" d="M1164.78,-102.5C1164.78,-98.64 1113.11,-95.5 1049.5,-95.5 985.89,-95.5 934.21,-98.64 934.21,-102.5"/>
<text xml:space="preserve" text-anchor="middle" x="1049.5" y="-77" font-family="Arial" font-size="20.00">Metadata Store</text>
<text xml:space="preserve" text-anchor="middle" x="1049.5" y="-53" font-family="Arial" font-size="20.00">(laptops_metadata.json)</text>
</g>
<!-- BuildIndexScript&#45;&gt;MetaJSON -->
<g id="edge7" class="edge">
<title>BuildIndexScript&#45;&gt;MetaJSON</title>
<path fill="none" stroke="black" d="M624.2,-253C779.5,-253 1049.5,-253 1049.5,-253 1049.5,-253 1049.5,-121.11 1049.5,-121.11"/>
<polygon fill="black" stroke="black" points="1053,-121.11 1049.5,-111.11 1046,-121.11 1053,-121.11"/>
<text xml:space="preserve" text-anchor="middle" x="848.19" y="-257.5" font-family="Arial" font-size="15.00">Writes Metadata</text>
</g>
<!-- EmbedModel&#45;&gt;BuildIndexScript -->
<g id="edge5" class="edge">
<title>EmbedModel&#45;&gt;BuildIndexScript</title>
<path fill="none" stroke="black" d="M451,-121.11C451,-121.11 451,-214.77 451,-214.77"/>
<polygon fill="black" stroke="black" points="454.5,-121.11 451,-111.11 447.5,-121.11 454.5,-121.11"/>
<text xml:space="preserve" text-anchor="middle" x="380.96" y="-172.44" font-family="Arial" font-size="15.00">Returns Embeddings</text>
</g>
<!-- SQLiteDB -->
<g id="node10" class="node">
<title>SQLiteDB</title>
<path fill="#e8f5e9" stroke="black" d="M233.96,-116C233.96,-121.52 185.8,-126 126.5,-126 67.2,-126 19.04,-121.52 19.04,-116 19.04,-116 19.04,-26 19.04,-26 19.04,-20.48 67.2,-16 126.5,-16 185.8,-16 233.96,-20.48 233.96,-26 233.96,-26 233.96,-116 233.96,-116"/>
<path fill="none" stroke="black" d="M233.96,-116C233.96,-110.48 185.8,-106 126.5,-106 67.2,-106 19.04,-110.48 19.04,-116"/>
<text xml:space="preserve" text-anchor="middle" x="126.5" y="-89" font-family="Arial" font-size="20.00">SQLite Database</text>
<text xml:space="preserve" text-anchor="middle" x="126.5" y="-65" font-family="Arial" font-size="20.00">(laptops_dynamic.db)</text>
<text xml:space="preserve" text-anchor="middle" x="126.5" y="-41" font-family="Arial" font-size="20.00">(Prices, Reviews, etc.)</text>
</g>
<!-- SetupDBScript&#45;&gt;SQLiteDB -->
<g id="edge9" class="edge">
<title>SetupDBScript&#45;&gt;SQLiteDB</title>
<path fill="none" stroke="black" d="M126.75,-197.9C126.75,-197.9 126.75,-137.74 126.75,-137.74"/>
<polygon fill="black" stroke="black" points="130.25,-137.74 126.75,-127.74 123.25,-137.74 130.25,-137.74"/>
<text xml:space="preserve" text-anchor="middle" x="63.38" y="-172.32" font-family="Arial" font-size="15.00">Populates/Updates</text>
</g>
<!-- FastAPIApp -->
<g id="node11" class="node">
<title>FastAPIApp</title>
<polygon fill="#b2ebf2" stroke="black" points="1470.64,-595.5 1332.36,-595.5 1332.36,-591.5 1328.36,-591.5 1328.36,-587.5 1332.36,-587.5 1332.36,-547.5 1328.36,-547.5 1328.36,-543.5 1332.36,-543.5 1332.36,-539.5 1470.64,-539.5 1470.64,-595.5"/>
<polyline fill="none" stroke="black" points="1332.36,-591.5 1336.36,-591.5 1336.36,-587.5 1332.36,-587.5"/>
<polyline fill="none" stroke="black" points="1332.36,-547.5 1336.36,-547.5 1336.36,-543.5 1332.36,-543.5"/>
<text xml:space="preserve" text-anchor="middle" x="1401.5" y="-573.5" font-family="Arial" font-size="20.00">FastAPI App</text>
<text xml:space="preserve" text-anchor="middle" x="1401.5" y="-549.5" font-family="Arial" font-size="20.00">(app/main.py)</text>
</g>
<!-- APIEndpoints -->
<g id="node12" class="node">
<title>APIEndpoints</title>
<path fill="#b2ebf2" stroke="black" d="M1462.9,-390.5C1462.9,-390.5 1636.09,-390.5 1636.09,-390.5 1642.09,-390.5 1648.09,-396.5 1648.09,-402.5 1648.09,-402.5 1648.09,-434.5 1648.09,-434.5 1648.09,-440.5 1642.09,-446.5 1636.09,-446.5 1636.09,-446.5 1462.9,-446.5 1462.9,-446.5 1456.9,-446.5 1450.9,-440.5 1450.9,-434.5 1450.9,-434.5 1450.9,-402.5 1450.9,-402.5 1450.9,-396.5 1456.9,-390.5 1462.9,-390.5"/>
<text xml:space="preserve" text-anchor="middle" x="1549.5" y="-424.5" font-family="Arial" font-size="20.00">API Endpoints</text>
<text xml:space="preserve" text-anchor="middle" x="1549.5" y="-400.5" font-family="Arial" font-size="20.00">(/laptops, /chat, etc.)</text>
</g>
<!-- FastAPIApp&#45;&gt;APIEndpoints -->
<g id="edge16" class="edge">
<title>FastAPIApp&#45;&gt;APIEndpoints</title>
<path fill="none" stroke="black" d="M1460.77,-539.12C1460.77,-539.12 1460.77,-458.28 1460.77,-458.28"/>
<polygon fill="black" stroke="black" points="1464.27,-458.28 1460.77,-448.28 1457.27,-458.28 1464.27,-458.28"/>
<text xml:space="preserve" text-anchor="middle" x="1403.24" y="-503.2" font-family="Arial" font-size="15.00">Routes Requests</text>
</g>
<!-- Utils -->
<g id="node14" class="node">
<title>Utils</title>
<path fill="#b2ebf2" stroke="black" d="M1362.42,-284.5C1362.42,-288.36 1323.46,-291.5 1275.5,-291.5 1227.54,-291.5 1188.58,-288.36 1188.58,-284.5 1188.58,-284.5 1188.58,-221.5 1188.58,-221.5 1188.58,-217.64 1227.54,-214.5 1275.5,-214.5 1323.46,-214.5 1362.42,-217.64 1362.42,-221.5 1362.42,-221.5 1362.42,-284.5 1362.42,-284.5"/>
<path fill="none" stroke="black" d="M1362.42,-284.5C1362.42,-280.64 1323.46,-277.5 1275.5,-277.5 1227.54,-277.5 1188.58,-280.64 1188.58,-284.5"/>
<text xml:space="preserve" text-anchor="middle" x="1275.5" y="-259" font-family="Arial" font-size="20.00">Utilities &amp; Config</text>
<text xml:space="preserve" text-anchor="middle" x="1275.5" y="-235" font-family="Arial" font-size="20.00">(app/utils.py, etc.)</text>
</g>
<!-- FastAPIApp&#45;&gt;Utils -->
<g id="edge15" class="edge">
<title>FastAPIApp&#45;&gt;Utils</title>
<path fill="none" stroke="black" d="M1342.38,-539.04C1342.38,-539.04 1342.38,-301.8 1342.38,-301.8"/>
<polygon fill="black" stroke="black" points="1345.88,-301.8 1342.38,-291.8 1338.88,-301.8 1345.88,-301.8"/>
<text xml:space="preserve" text-anchor="middle" x="1284.86" y="-424.92" font-family="Arial" font-size="15.00">Uses (on startup)</text>
</g>
<!-- RAGHandler -->
<g id="node13" class="node">
<title>RAGHandler</title>
<path fill="#b2ebf2" stroke="black" d="M1672.34,-284.5C1672.34,-288.36 1627.14,-291.5 1571.5,-291.5 1515.86,-291.5 1470.66,-288.36 1470.66,-284.5 1470.66,-284.5 1470.66,-221.5 1470.66,-221.5 1470.66,-217.64 1515.86,-214.5 1571.5,-214.5 1627.14,-214.5 1672.34,-217.64 1672.34,-221.5 1672.34,-221.5 1672.34,-284.5 1672.34,-284.5"/>
<path fill="none" stroke="black" d="M1672.34,-284.5C1672.34,-280.64 1627.14,-277.5 1571.5,-277.5 1515.86,-277.5 1470.66,-280.64 1470.66,-284.5"/>
<text xml:space="preserve" text-anchor="middle" x="1571.5" y="-259" font-family="Arial" font-size="20.00">RAG Handler</text>
<text xml:space="preserve" text-anchor="middle" x="1571.5" y="-235" font-family="Arial" font-size="20.00">(app/rag_handler.py)</text>
</g>
<!-- APIEndpoints&#45;&gt;RAGHandler -->
<g id="edge18" class="edge">
<title>APIEndpoints&#45;&gt;RAGHandler</title>
<path fill="none" stroke="black" d="M1559.38,-390.05C1559.38,-390.05 1559.38,-303.42 1559.38,-303.42"/>
<polygon fill="black" stroke="black" points="1562.88,-303.42 1559.38,-293.42 1555.88,-303.42 1562.88,-303.42"/>
<text xml:space="preserve" text-anchor="middle" x="1505.61" y="-351.24" font-family="Arial" font-size="15.00">Calls RAG Func</text>
</g>
<!-- APIEndpoints&#45;&gt;Utils -->
<g id="edge17" class="edge">
<title>APIEndpoints&#45;&gt;Utils</title>
<path fill="none" stroke="black" stroke-dasharray="5,2" d="M1450.66,-419C1401.48,-419 1352.4,-419 1352.4,-419 1352.4,-419 1352.4,-300.94 1352.4,-300.94"/>
<polygon fill="black" stroke="black" points="1355.9,-300.94 1352.4,-290.94 1348.9,-300.94 1355.9,-300.94"/>
<text xml:space="preserve" text-anchor="middle" x="1300.72" y="-395.6" font-family="Arial" font-size="15.00">Calls DB Funcs</text>
</g>
<!-- StreamlitApp -->
<g id="node16" class="node">
<title>StreamlitApp</title>
<polygon fill="#c8e6c9" stroke="black" points="1956.53,-281 1780.47,-281 1780.47,-277 1776.47,-277 1776.47,-273 1780.47,-273 1780.47,-233 1776.47,-233 1776.47,-229 1780.47,-229 1780.47,-225 1956.53,-225 1956.53,-281"/>
<polyline fill="none" stroke="black" points="1780.47,-277 1784.47,-277 1784.47,-273 1780.47,-273"/>
<polyline fill="none" stroke="black" points="1780.47,-233 1784.47,-233 1784.47,-229 1780.47,-229"/>
<text xml:space="preserve" text-anchor="middle" x="1868.5" y="-259" font-family="Arial" font-size="20.00">Streamlit App</text>
<text xml:space="preserve" text-anchor="middle" x="1868.5" y="-235" font-family="Arial" font-size="20.00">(streamlit_app.py)</text>
</g>
<!-- APIEndpoints&#45;&gt;StreamlitApp -->
<g id="edge28" class="edge">
<title>APIEndpoints&#45;&gt;StreamlitApp</title>
<path fill="none" stroke="black" d="M1659.9,-428C1659.9,-428 1897.84,-428 1897.84,-428 1897.84,-428 1897.84,-330.59 1897.84,-281.12"/>
<polygon fill="black" stroke="black" points="1659.9,-424.5 1649.9,-428 1659.9,-431.5 1659.9,-424.5"/>
<text xml:space="preserve" text-anchor="middle" x="1793.13" y="-432.5" font-family="Arial" font-size="15.00">HTTP Responses</text>
</g>
<!-- RAGHandler&#45;&gt;EmbedModel -->
<g id="edge19" class="edge">
<title>RAGHandler&#45;&gt;EmbedModel</title>
<path fill="none" stroke="black" stroke-dasharray="5,2" d="M1474.28,-217.03C1474.28,-191.6 1474.28,-162 1474.28,-162 1474.28,-162 530.76,-162 530.76,-162 530.76,-162 530.76,-120.58 530.76,-120.58"/>
<polygon fill="black" stroke="black" points="534.26,-120.58 530.76,-110.58 527.26,-120.58 534.26,-120.58"/>
<text xml:space="preserve" text-anchor="middle" x="963.06" y="-166.5" font-family="Arial" font-size="15.00">Embed Query</text>
</g>
<!-- RAGHandler&#45;&gt;FAISS -->
<g id="edge20" class="edge">
<title>RAGHandler&#45;&gt;FAISS</title>
<path fill="none" stroke="black" stroke-dasharray="5,2" d="M1472.47,-217.38C1472.47,-210.82 1472.47,-206 1472.47,-206 1472.47,-206 777.03,-206 777.03,-206 777.03,-206 777.03,-121.2 777.03,-121.2"/>
<polygon fill="black" stroke="black" points="780.53,-121.2 777.03,-111.2 773.53,-121.2 780.53,-121.2"/>
<text xml:space="preserve" text-anchor="middle" x="1043.84" y="-210.5" font-family="Arial" font-size="15.00">Search Index</text>
</g>
<!-- RAGHandler&#45;&gt;MetaJSON -->
<g id="edge21" class="edge">
<title>RAGHandler&#45;&gt;MetaJSON</title>
<path fill="none" stroke="black" stroke-dasharray="5,2" d="M1476.09,-217.07C1476.09,-159.25 1476.09,-52 1476.09,-52 1476.09,-52 1176.74,-52 1176.74,-52"/>
<polygon fill="black" stroke="black" points="1176.74,-48.5 1166.74,-52 1176.74,-55.5 1176.74,-48.5"/>
<text xml:space="preserve" text-anchor="middle" x="1368.93" y="-56.5" font-family="Arial" font-size="15.00">Get Context</text>
</g>
<!-- RAGHandler&#45;&gt;Utils -->
<g id="edge22" class="edge">
<title>RAGHandler&#45;&gt;Utils</title>
<path fill="none" stroke="black" stroke-dasharray="5,2" d="M1470.46,-253C1470.46,-253 1374.26,-253 1374.26,-253"/>
<polygon fill="black" stroke="black" points="1374.26,-249.5 1364.26,-253 1374.26,-256.5 1374.26,-249.5"/>
<text xml:space="preserve" text-anchor="middle" x="1422.36" y="-239.5" font-family="Arial" font-size="15.00">Get Dyn. Data</text>
</g>
<!-- Gemini -->
<g id="node15" class="node">
<title>Gemini</title>
<path fill="#b2ebf2" stroke="black" d="M1665.09,-102.5C1665.09,-106.36 1623.14,-109.5 1571.5,-109.5 1519.85,-109.5 1477.9,-106.36 1477.9,-102.5 1477.9,-102.5 1477.9,-39.5 1477.9,-39.5 1477.9,-35.64 1519.85,-32.5 1571.5,-32.5 1623.14,-32.5 1665.09,-35.64 1665.09,-39.5 1665.09,-39.5 1665.09,-102.5 1665.09,-102.5"/>
<path fill="none" stroke="black" d="M1665.09,-102.5C1665.09,-98.64 1623.14,-95.5 1571.5,-95.5 1519.85,-95.5 1477.9,-98.64 1477.9,-102.5"/>
<text xml:space="preserve" text-anchor="middle" x="1571.5" y="-77" font-family="Arial" font-size="20.00">Google Gemini API</text>
<text xml:space="preserve" text-anchor="middle" x="1571.5" y="-53" font-family="Arial" font-size="20.00">(LLM Generation)</text>
</g>
<!-- RAGHandler&#45;&gt;Gemini -->
<g id="edge23" class="edge">
<title>RAGHandler&#45;&gt;Gemini</title>
<path fill="none" stroke="black" d="M1602.7,-214.4C1602.7,-214.4 1602.7,-121.37 1602.7,-121.37"/>
<polygon fill="black" stroke="black" points="1606.2,-121.37 1602.7,-111.37 1599.2,-121.37 1606.2,-121.37"/>
<text xml:space="preserve" text-anchor="middle" x="1558.92" y="-172.39" font-family="Arial" font-size="15.00">Send Prompt</text>
</g>
<!-- Utils&#45;&gt;EmbedModel -->
<g id="edge13" class="edge">
<title>Utils&#45;&gt;EmbedModel</title>
<path fill="none" stroke="black" stroke-dasharray="5,2" d="M1188.39,-272C1016.77,-272 651.4,-272 651.4,-272 651.4,-272 651.4,-84 651.4,-84 651.4,-84 582.51,-84 582.51,-84"/>
<polygon fill="black" stroke="black" points="582.51,-80.5 572.51,-84 582.51,-87.5 582.51,-80.5"/>
<text xml:space="preserve" text-anchor="middle" x="736.84" y="-276.5" font-family="Arial" font-size="15.00">Loads/Accesses</text>
</g>
<!-- Utils&#45;&gt;FAISS -->
<g id="edge10" class="edge">
<title>Utils&#45;&gt;FAISS</title>
<path fill="none" stroke="black" stroke-dasharray="5,2" d="M1188.14,-234C1033.55,-234 727.97,-234 727.97,-234 727.97,-234 727.97,-121.14 727.97,-121.14"/>
<polygon fill="black" stroke="black" points="731.47,-121.14 727.97,-111.14 724.47,-121.14 731.47,-121.14"/>
<text xml:space="preserve" text-anchor="middle" x="847.01" y="-238.5" font-family="Arial" font-size="15.00">Loads/Accesses</text>
</g>
<!-- Utils&#45;&gt;MetaJSON -->
<g id="edge11" class="edge">
<title>Utils&#45;&gt;MetaJSON</title>
<path fill="none" stroke="black" stroke-dasharray="5,2" d="M1275.5,-214.4C1275.5,-160.98 1275.5,-71 1275.5,-71 1275.5,-71 1176.66,-71 1176.66,-71"/>
<polygon fill="black" stroke="black" points="1176.66,-67.5 1166.66,-71 1176.66,-74.5 1176.66,-67.5"/>
<text xml:space="preserve" text-anchor="middle" x="1220.89" y="-97.78" font-family="Arial" font-size="15.00">Loads/Accesses</text>
</g>
<!-- Utils&#45;&gt;SQLiteDB -->
<g id="edge12" class="edge">
<title>Utils&#45;&gt;SQLiteDB</title>
<path fill="none" stroke="black" stroke-dasharray="5,2" d="M1232.04,-214.31C1232.04,-174.42 1232.04,-118 1232.04,-118 1232.04,-118 245.78,-118 245.78,-118"/>
<polygon fill="black" stroke="black" points="245.78,-114.5 235.78,-118 245.78,-121.5 245.78,-114.5"/>
<text xml:space="preserve" text-anchor="middle" x="727.04" y="-122.5" font-family="Arial" font-size="15.00">Connects/Queries</text>
</g>
<!-- Utils&#45;&gt;Gemini -->
<g id="edge14" class="edge">
<title>Utils&#45;&gt;Gemini</title>
<path fill="none" stroke="black" stroke-dasharray="5,2" d="M1318.96,-214.37C1318.96,-166.17 1318.96,-90 1318.96,-90 1318.96,-90 1465.95,-90 1465.95,-90"/>
<polygon fill="black" stroke="black" points="1465.95,-93.5 1475.95,-90 1465.95,-86.5 1465.95,-93.5"/>
<text xml:space="preserve" text-anchor="middle" x="1272.74" y="-76.5" font-family="Arial" font-size="15.00">Configures Client</text>
</g>
<!-- Gemini&#45;&gt;RAGHandler -->
<g id="edge24" class="edge">
<title>Gemini&#45;&gt;RAGHandler</title>
<path fill="none" stroke="black" d="M1540.3,-109.6C1540.3,-109.6 1540.3,-202.63 1540.3,-202.63"/>
<polygon fill="black" stroke="black" points="1536.8,-202.63 1540.3,-212.63 1543.8,-202.63 1536.8,-202.63"/>
<text xml:space="preserve" text-anchor="middle" x="1492.36" y="-142.61" font-family="Arial" font-size="15.00">Get Response</text>
</g>
<!-- StreamlitApp&#45;&gt;APIEndpoints -->
<g id="edge27" class="edge">
<title>StreamlitApp&#45;&gt;APIEndpoints</title>
<path fill="none" stroke="black" d="M1839.16,-281.25C1839.16,-326.21 1839.16,-409 1839.16,-409 1839.16,-409 1659.89,-409 1659.89,-409"/>
<polygon fill="black" stroke="black" points="1659.89,-405.5 1649.89,-409 1659.89,-412.5 1659.89,-405.5"/>
<text xml:space="preserve" text-anchor="middle" x="1760.89" y="-413.5" font-family="Arial" font-size="15.00">HTTP API Calls</text>
</g>
<!-- User -->
<g id="node17" class="node">
<title>User</title>
<ellipse fill="#ffcdd2" stroke="black" cx="1868.5" cy="-71" rx="41.17" ry="22.63"/>
<text xml:space="preserve" text-anchor="middle" x="1868.5" y="-65" font-family="Arial" font-size="20.00">User</text>
</g>
<!-- StreamlitApp&#45;&gt;User -->
<g id="edge26" class="edge">
<title>StreamlitApp&#45;&gt;User</title>
<path fill="none" stroke="black" d="M1882.22,-224.56C1882.22,-224.56 1882.22,-104.2 1882.22,-104.2"/>
<polygon fill="black" stroke="black" points="1885.72,-104.2 1882.22,-94.2 1878.72,-104.2 1885.72,-104.2"/>
<text xml:space="preserve" text-anchor="middle" x="1817.21" y="-168.88" font-family="Arial" font-size="15.00">Displays UI/Results</text>
</g>
<!-- User&#45;&gt;StreamlitApp -->
<g id="edge25" class="edge">
<title>User&#45;&gt;StreamlitApp</title>
<path fill="none" stroke="black" d="M1854.77,-92.59C1854.77,-92.59 1854.77,-213.06 1854.77,-213.06"/>
<polygon fill="black" stroke="black" points="1851.27,-213.06 1854.77,-223.06 1858.27,-213.06 1851.27,-213.06"/>
<text xml:space="preserve" text-anchor="middle" x="1826.01" y="-139.32" font-family="Arial" font-size="15.00">Interacts</text>
</g>
</g>
</svg>
